<mxfile host="app.diagrams.net" modified="2023-06-24T14:57:00.904Z" agent="Mozilla/5.0 (Macintosh; Intel Mac OS X 10_15_7) AppleWebKit/537.36 (KHTML, like Gecko) Chrome/114.0.0.0 Safari/537.36" etag="Ulxnyr_6XGfFuVlTk-FA" version="21.1.4" type="device">
  <diagram name="Page-1" id="7irELGTxX8Byw6-8dA4Q">
    <mxGraphModel dx="1194" dy="766" grid="1" gridSize="10" guides="1" tooltips="1" connect="1" arrows="1" fold="1" page="1" pageScale="1" pageWidth="850" pageHeight="1100" math="1" shadow="0">
      <root>
        <mxCell id="0" />
        <mxCell id="1" parent="0" />
        <mxCell id="ch1kh3pWWLGE4-PKG6ll-17" style="edgeStyle=orthogonalEdgeStyle;rounded=0;orthogonalLoop=1;jettySize=auto;html=1;exitX=0.5;exitY=1;exitDx=0;exitDy=0;" edge="1" parent="1" source="ch1kh3pWWLGE4-PKG6ll-1" target="ch1kh3pWWLGE4-PKG6ll-2">
          <mxGeometry relative="1" as="geometry" />
        </mxCell>
        <mxCell id="ch1kh3pWWLGE4-PKG6ll-1" value="&lt;font style=&quot;font-size: 15px;&quot;&gt;Collect data that consist of two variables $$(x_i, y_i)$$ where y is dependent on x&lt;/font&gt;" style="rounded=0;whiteSpace=wrap;html=1;fontSize=15;" vertex="1" parent="1">
          <mxGeometry x="272" y="50" width="305.62" height="140" as="geometry" />
        </mxCell>
        <mxCell id="ch1kh3pWWLGE4-PKG6ll-16" style="edgeStyle=orthogonalEdgeStyle;rounded=0;orthogonalLoop=1;jettySize=auto;html=1;exitX=0.5;exitY=1;exitDx=0;exitDy=0;entryX=0.5;entryY=0;entryDx=0;entryDy=0;" edge="1" parent="1" source="ch1kh3pWWLGE4-PKG6ll-2" target="ch1kh3pWWLGE4-PKG6ll-4">
          <mxGeometry relative="1" as="geometry" />
        </mxCell>
        <mxCell id="ch1kh3pWWLGE4-PKG6ll-2" value="Process the collected data &lt;br style=&quot;font-size: 15px;&quot;&gt;(normalization and&amp;nbsp;&lt;br style=&quot;font-size: 15px;&quot;&gt;&lt;div style=&quot;font-size: 15px;&quot;&gt;standardization if necessary)&lt;/div&gt;" style="rounded=0;whiteSpace=wrap;html=1;fontSize=15;" vertex="1" parent="1">
          <mxGeometry x="325" y="220" width="200.62" height="80" as="geometry" />
        </mxCell>
        <mxCell id="ch1kh3pWWLGE4-PKG6ll-15" style="edgeStyle=orthogonalEdgeStyle;rounded=0;orthogonalLoop=1;jettySize=auto;html=1;exitX=0.5;exitY=1;exitDx=0;exitDy=0;entryX=0.5;entryY=0;entryDx=0;entryDy=0;" edge="1" parent="1" source="ch1kh3pWWLGE4-PKG6ll-4" target="ch1kh3pWWLGE4-PKG6ll-5">
          <mxGeometry relative="1" as="geometry" />
        </mxCell>
        <mxCell id="ch1kh3pWWLGE4-PKG6ll-4" value="Set a and b randomly for hypothesis $$h_i = ax_i + b$$" style="rounded=0;whiteSpace=wrap;html=1;fontSize=15;" vertex="1" parent="1">
          <mxGeometry x="258.13" y="330" width="334.37" height="80" as="geometry" />
        </mxCell>
        <mxCell id="ch1kh3pWWLGE4-PKG6ll-14" style="edgeStyle=orthogonalEdgeStyle;rounded=0;orthogonalLoop=1;jettySize=auto;html=1;exitX=0.5;exitY=1;exitDx=0;exitDy=0;entryX=0.5;entryY=0;entryDx=0;entryDy=0;" edge="1" parent="1" source="ch1kh3pWWLGE4-PKG6ll-5" target="ch1kh3pWWLGE4-PKG6ll-6">
          <mxGeometry relative="1" as="geometry" />
        </mxCell>
        <mxCell id="ch1kh3pWWLGE4-PKG6ll-5" value="Find&amp;nbsp;derivatives of error function $$\dfrac{\partial E}{\partial a,}\dfrac{\partial E}{\partial b}&lt;br style=&quot;font-size: 15px;&quot;&gt;$$&amp;nbsp;&lt;br style=&quot;font-size: 15px;&quot;&gt;where the error is the sum of differences between h_i and y_i" style="rounded=0;whiteSpace=wrap;html=1;fontSize=15;" vertex="1" parent="1">
          <mxGeometry x="209.11" y="440" width="431.4" height="180" as="geometry" />
        </mxCell>
        <mxCell id="ch1kh3pWWLGE4-PKG6ll-13" style="edgeStyle=orthogonalEdgeStyle;rounded=0;orthogonalLoop=1;jettySize=auto;html=1;exitX=0.5;exitY=1;exitDx=0;exitDy=0;entryX=0.5;entryY=0;entryDx=0;entryDy=0;" edge="1" parent="1" source="ch1kh3pWWLGE4-PKG6ll-6" target="ch1kh3pWWLGE4-PKG6ll-7">
          <mxGeometry relative="1" as="geometry" />
        </mxCell>
        <mxCell id="ch1kh3pWWLGE4-PKG6ll-6" value="Update a and b using the derivatives and calculate the error again" style="rounded=0;whiteSpace=wrap;html=1;fontSize=15;" vertex="1" parent="1">
          <mxGeometry x="297" y="660" width="255.62" height="60" as="geometry" />
        </mxCell>
        <mxCell id="ch1kh3pWWLGE4-PKG6ll-7" value="Is the error small enough?" style="rhombus;whiteSpace=wrap;html=1;fontSize=15;" vertex="1" parent="1">
          <mxGeometry x="308.88" y="750" width="231.87" height="80" as="geometry" />
        </mxCell>
        <mxCell id="ch1kh3pWWLGE4-PKG6ll-8" value="" style="endArrow=classic;html=1;rounded=0;exitX=0;exitY=0.5;exitDx=0;exitDy=0;entryX=0;entryY=0.5;entryDx=0;entryDy=0;" edge="1" parent="1" source="ch1kh3pWWLGE4-PKG6ll-7" target="ch1kh3pWWLGE4-PKG6ll-5">
          <mxGeometry width="50" height="50" relative="1" as="geometry">
            <mxPoint x="400" y="670" as="sourcePoint" />
            <mxPoint x="130" y="490" as="targetPoint" />
            <Array as="points">
              <mxPoint x="130" y="790" />
              <mxPoint x="130" y="530" />
            </Array>
          </mxGeometry>
        </mxCell>
        <mxCell id="ch1kh3pWWLGE4-PKG6ll-10" value="No" style="edgeLabel;html=1;align=center;verticalAlign=middle;resizable=0;points=[];fontSize=15;" vertex="1" connectable="0" parent="ch1kh3pWWLGE4-PKG6ll-8">
          <mxGeometry x="-0.7817" y="2" relative="1" as="geometry">
            <mxPoint as="offset" />
          </mxGeometry>
        </mxCell>
        <mxCell id="ch1kh3pWWLGE4-PKG6ll-11" value="" style="endArrow=classic;html=1;rounded=0;exitX=0.5;exitY=1;exitDx=0;exitDy=0;" edge="1" parent="1" source="ch1kh3pWWLGE4-PKG6ll-7" target="ch1kh3pWWLGE4-PKG6ll-12">
          <mxGeometry width="50" height="50" relative="1" as="geometry">
            <mxPoint x="400" y="670" as="sourcePoint" />
            <mxPoint x="425" y="940" as="targetPoint" />
          </mxGeometry>
        </mxCell>
        <mxCell id="ch1kh3pWWLGE4-PKG6ll-18" value="Yes" style="edgeLabel;html=1;align=center;verticalAlign=middle;resizable=0;points=[];fontSize=15;" vertex="1" connectable="0" parent="ch1kh3pWWLGE4-PKG6ll-11">
          <mxGeometry x="-0.1125" y="3" relative="1" as="geometry">
            <mxPoint y="-1" as="offset" />
          </mxGeometry>
        </mxCell>
        <mxCell id="ch1kh3pWWLGE4-PKG6ll-12" value="Predict y for input x using the obtained model" style="rounded=0;whiteSpace=wrap;html=1;fontSize=15;" vertex="1" parent="1">
          <mxGeometry x="268.46" y="910" width="312.69" height="80" as="geometry" />
        </mxCell>
      </root>
    </mxGraphModel>
  </diagram>
</mxfile>
